<svg width="225" height="30" viewBox="0 0 225 30" fill="none" xmlns="http://www.w3.org/2000/svg">
<g clip-path="url(#clip0_1814_4017)">
<path d="M1.29586 4.79437C3.55108 3.54799 8.46159 1.22757 15.0971 1.21102C21.8107 1.19448 26.7801 3.54661 29.0367 4.79437C29.1477 7.13685 29.0696 12.2616 26.1951 17.7559C22.6889 24.4552 17.1934 27.5587 15.167 28.579C13.1433 27.5505 7.91218 24.5545 4.41014 18.1695C1.28353 12.4726 1.19858 7.11203 1.29586 4.79437Z" fill="white"/>
<path d="M24.7188 7.64209C24.6887 9.81912 24.2571 12.6883 22.7007 15.6677C21.8443 17.3084 20.8058 18.6748 19.7261 19.804V12.5794L16.0843 17.0547H14.2484L10.6052 12.5794V19.8012C9.52693 18.6734 8.48975 17.3071 7.63342 15.6677C6.07971 12.6924 5.64538 9.82188 5.61523 7.64209C7.26897 6.87138 9.44336 6.10617 12.0397 5.74219L15.1664 9.75708L18.2916 5.74219C20.8907 6.10617 23.0637 6.87138 24.7188 7.64209Z" fill="white"/>
<path d="M15.1729 29.9993L14.888 29.8697C14.8688 29.8614 14.851 29.8518 14.8318 29.8421C11.8422 28.3338 6.32058 24.7918 2.8665 17.9919C0.198877 12.743 -0.142284 7.72439 0.0413126 4.43747L0.0769358 4.01007L0.372882 3.84462C3.37756 2.16945 8.273 0.144078 14.5249 0.00620433C14.9537 -0.00206811 15.388 -0.00206811 15.8114 0.00620433C22.066 0.144078 26.9587 2.17083 29.962 3.846L30.2607 4.01282L30.2936 4.44161C30.4799 7.72301 30.1401 12.7389 27.4698 17.9919C24.0184 24.7863 18.4969 28.331 15.5059 29.8421C15.4867 29.8518 15.4689 29.8614 15.4511 29.8697L15.1757 29.9993H15.1729ZM1.29634 4.79457C1.15796 7.92431 1.53612 12.5638 3.99822 17.4087C7.19883 23.7109 12.271 27.0778 15.1675 28.5792C18.0762 27.0681 23.1416 23.6999 26.3367 17.4087C28.8029 12.5583 29.1783 7.91879 29.0372 4.79457C26.138 3.22418 21.5687 1.41114 15.784 1.2843C15.3785 1.27602 14.9578 1.27602 14.5495 1.2843C8.76899 1.41114 4.19689 3.22556 1.29497 4.79457H1.29634Z" fill="black"/>
<path d="M27.0131 6.24003C27.0103 6.22073 27.0103 6.2028 27.009 6.18212C26.7788 6.05666 26.513 5.9174 26.2129 5.76988C26.143 5.73541 26.0704 5.69956 25.9951 5.66372C25.7539 5.5479 25.4936 5.42519 25.2127 5.30387C25.1319 5.2694 25.0483 5.23217 24.9647 5.19632C24.8798 5.16048 24.7921 5.12325 24.703 5.0874C24.6455 5.06396 24.5879 5.03915 24.529 5.01571C24.4797 4.99503 24.429 4.97573 24.3797 4.95642C24.3071 4.92609 24.2317 4.89852 24.1577 4.86956C24.0769 4.83785 23.9933 4.80614 23.9097 4.77581C23.8755 4.76202 23.8385 4.74823 23.8029 4.73582C23.7631 4.72066 23.7234 4.70549 23.6809 4.69171C23.6124 4.66551 23.5412 4.64069 23.4699 4.61587C23.3014 4.55659 23.1301 4.4973 22.9534 4.44077C22.5862 4.31945 22.2012 4.20225 21.7997 4.09195C21.7326 4.07403 21.6655 4.05611 21.597 4.0368C21.5298 4.01888 21.4613 4.00096 21.3928 3.98165C21.2613 3.94719 21.1284 3.91547 20.9914 3.88101C20.7037 3.81207 20.4063 3.74589 20.1035 3.68385C20.0296 3.66868 19.9542 3.65351 19.8802 3.63973C19.7569 3.61629 19.6336 3.59285 19.5075 3.57079C19.4335 3.557 19.3596 3.54459 19.2856 3.53218C19.2116 3.51978 19.1362 3.50737 19.0622 3.49634C18.9896 3.48393 18.9184 3.47428 18.8458 3.46187C18.7663 3.44946 18.6868 3.43843 18.606 3.4274C18.5279 3.41499 18.4525 3.40534 18.3744 3.39569C18.3046 3.38604 18.2347 3.37777 18.1634 3.36811C18.0251 3.35157 17.8867 3.33503 17.7456 3.32124C17.6949 3.31572 17.6442 3.31021 17.5948 3.30607C17.4784 3.29504 17.3619 3.28401 17.2441 3.27298C17.0619 3.25919 16.8783 3.24403 16.6919 3.233C16.533 3.22335 16.3741 3.21507 16.2124 3.20818C16.0384 3.19991 15.8603 3.19577 15.6822 3.19164C15.5191 3.18888 15.352 3.1875 15.1862 3.1875C15.0067 3.1875 14.8299 3.1875 14.6532 3.19164C14.4751 3.19577 14.297 3.20129 14.123 3.20818C13.9613 3.21507 13.8023 3.22335 13.6434 3.233C13.4571 3.24403 13.2735 3.25919 13.0913 3.27298C12.9734 3.28401 12.857 3.29366 12.7405 3.30607C12.6898 3.31159 12.6391 3.3171 12.5898 3.32124C12.4487 3.33503 12.3103 3.35157 12.1719 3.36811C12.1007 3.37777 12.0308 3.38604 11.9609 3.39569C11.8828 3.40534 11.8075 3.41499 11.7294 3.4274C11.6485 3.43843 11.569 3.44946 11.4896 3.46187C11.417 3.4729 11.3457 3.48393 11.2731 3.49634C11.1977 3.50737 11.1238 3.52116 11.0498 3.53218C10.9744 3.54459 10.9004 3.557 10.8278 3.57079C10.7018 3.59285 10.5785 3.61629 10.4551 3.63973C10.3798 3.65351 10.3058 3.66868 10.2318 3.68385C9.92764 3.74451 9.6317 3.81069 9.34397 3.88101C9.20833 3.91547 9.07543 3.94719 8.94253 3.98165C8.87402 3.99958 8.80551 4.0175 8.73838 4.0368C8.66987 4.05473 8.60274 4.07265 8.5356 4.09195C8.13415 4.20225 7.74915 4.31945 7.38196 4.44077C7.25591 4.48214 7.13123 4.5235 7.00928 4.56762C6.92571 4.59657 6.84213 4.62553 6.76129 4.65448C6.75718 4.65448 6.75444 4.65448 6.7517 4.65724C6.65305 4.69171 6.55714 4.72755 6.46261 4.76202C5.97484 4.94264 5.52681 5.12601 5.11715 5.30524C5.10756 5.30938 5.1007 5.31352 5.09111 5.31765C5.00069 5.35764 4.913 5.39762 4.82668 5.43622C4.56773 5.55342 4.32933 5.66785 4.106 5.77815C4.03475 5.81262 3.96487 5.84847 3.89774 5.88156C3.68537 5.9891 3.49355 6.09113 3.31955 6.18488C3.31955 6.2028 3.31955 6.22073 3.31681 6.24003C3.29214 6.66606 3.2757 7.19136 3.28666 7.79801C3.28666 7.86556 3.2894 7.93312 3.29214 8.00206C3.29214 8.03515 3.29214 8.06962 3.29488 8.10409C3.29762 8.16337 3.30037 8.22542 3.30311 8.28746C3.31133 8.47635 3.32092 8.67075 3.33736 8.87342C3.34284 8.95063 3.34832 9.02646 3.35517 9.10505C3.36202 9.18364 3.3675 9.26085 3.37572 9.34082C3.45382 10.1543 3.58809 11.0532 3.81005 12.0114C3.82649 12.0859 3.84567 12.159 3.86349 12.232C3.88678 12.3272 3.91007 12.4223 3.9361 12.5188C3.99365 12.7463 4.05941 12.9766 4.12929 13.2109C4.17587 13.3695 4.22657 13.5294 4.27863 13.6907C4.29918 13.7569 4.32111 13.8231 4.3444 13.8893C4.38824 14.023 4.4362 14.1568 4.48552 14.2933C4.52114 14.3953 4.55951 14.4959 4.59787 14.598C4.62938 14.6793 4.65953 14.7606 4.69241 14.842C4.7431 14.9688 4.79517 15.0998 4.84997 15.228C4.89108 15.3273 4.93218 15.4252 4.97739 15.5231C5.02261 15.6279 5.06919 15.7313 5.11715 15.8361C5.2062 16.0291 5.298 16.2235 5.39665 16.4193C5.4542 16.5351 5.51174 16.6495 5.57203 16.7653C5.63094 16.8798 5.69123 16.9914 5.75288 17.1031C6.09267 17.7277 6.45575 18.315 6.83528 18.8652C6.8983 18.9561 6.96133 19.0471 7.02573 19.1354C7.15041 19.3091 7.27509 19.4801 7.40251 19.6469C7.45594 19.7186 7.50938 19.7875 7.56281 19.8565C7.7286 20.0688 7.89575 20.2728 8.06428 20.4728C8.11223 20.5307 8.16156 20.5886 8.21088 20.6451C8.36022 20.8202 8.51368 20.9912 8.66713 21.158C8.72194 21.2173 8.77674 21.2766 8.83155 21.3331C8.92197 21.4296 9.0124 21.5247 9.1042 21.6185C9.22614 21.7426 9.34671 21.8639 9.46865 21.9825C9.5125 22.0238 9.55497 22.0652 9.59745 22.1066C9.77008 22.272 9.94134 22.4306 10.1126 22.5836C10.1702 22.6346 10.2263 22.6856 10.2839 22.7339C10.5743 22.9903 10.8634 23.2302 11.1457 23.4536C11.206 23.5019 11.2663 23.5501 11.3265 23.5956C11.369 23.6301 11.4129 23.6632 11.4567 23.6963C11.5115 23.7376 11.5649 23.779 11.6197 23.8203C11.6745 23.8603 11.728 23.9017 11.7814 23.9403C12.2116 24.2574 12.6254 24.5373 13.0132 24.7855C13.1584 24.8778 13.2995 24.9647 13.4379 25.0488C13.4845 25.0778 13.5297 25.1053 13.5749 25.1301C13.6201 25.1577 13.664 25.1839 13.7078 25.2101C13.7955 25.2625 13.8804 25.3121 13.9654 25.359C14.0065 25.3838 14.049 25.4073 14.0901 25.4293C14.1312 25.4528 14.1709 25.4748 14.212 25.4969C14.2572 25.5217 14.3024 25.5465 14.3449 25.57C14.3956 25.5975 14.4449 25.6251 14.4929 25.6499C14.6861 25.7533 14.8615 25.843 15.0176 25.9202C15.056 25.9395 15.0957 25.9574 15.1314 25.9767C15.1437 25.9836 15.156 25.9877 15.167 25.9932C15.1779 25.9877 15.1889 25.9822 15.2012 25.9767C15.2369 25.9588 15.2766 25.9408 15.315 25.9202C15.4547 25.8498 15.6095 25.7699 15.7794 25.6816C15.8466 25.6458 15.9151 25.6086 15.9863 25.57C16.6399 25.2156 17.4633 24.7248 18.3662 24.0754C18.4238 24.0354 18.4813 23.9941 18.5389 23.9513C18.6923 23.8383 18.8485 23.7211 19.0061 23.5984C19.065 23.5529 19.1266 23.5046 19.1869 23.4564C19.4705 23.233 19.7583 22.9931 20.0501 22.7367C20.1063 22.687 20.1638 22.636 20.2214 22.5864C20.3926 22.4333 20.5639 22.2748 20.7365 22.1093C20.779 22.0693 20.8229 22.028 20.8653 21.9852C20.9873 21.8667 21.1078 21.744 21.2298 21.6213C21.3682 21.4806 21.5052 21.3345 21.6422 21.187C21.6792 21.147 21.7175 21.1056 21.7545 21.0656C21.8148 20.9981 21.8765 20.9305 21.9368 20.8616C22.0162 20.7747 22.093 20.6851 22.1711 20.5941C22.2094 20.55 22.2491 20.5045 22.2861 20.459C22.3368 20.3997 22.3889 20.3376 22.4369 20.277C22.5574 20.1322 22.6753 19.9847 22.7917 19.833C22.8397 19.7737 22.8863 19.7117 22.9328 19.651C23.1055 19.4249 23.2754 19.1905 23.4425 18.9493C23.4877 18.8858 23.5316 18.8224 23.5741 18.7562C23.9262 18.2378 24.2632 17.6891 24.5811 17.1059C24.6428 16.9942 24.703 16.8825 24.762 16.7681C24.8538 16.593 24.9414 16.4165 25.0264 16.2428C25.0908 16.1132 25.1524 15.9822 25.21 15.854C25.2127 15.8498 25.2141 15.8471 25.2155 15.843C25.2155 15.843 25.2155 15.8402 25.2155 15.8388C25.2634 15.7354 25.31 15.6334 25.3538 15.53C25.4004 15.4252 25.4443 15.3232 25.4867 15.2198C25.5306 15.1164 25.5717 15.013 25.6128 14.9095C25.6525 14.8075 25.6936 14.7055 25.732 14.6035C25.7704 14.5001 25.8087 14.3994 25.8443 14.2988C25.8813 14.1967 25.917 14.0975 25.9512 13.9954C25.9855 13.8948 26.0197 13.7955 26.0526 13.6963C26.1129 13.506 26.1718 13.3171 26.2266 13.131C26.2581 13.0248 26.2883 12.9173 26.317 12.8125C26.3403 12.7284 26.3623 12.6443 26.3842 12.5616C26.3897 12.545 26.3938 12.5285 26.3965 12.5119C26.4198 12.4209 26.4431 12.3313 26.465 12.2417C26.5404 11.9356 26.6061 11.635 26.6623 11.3427C26.676 11.2711 26.6897 11.2007 26.702 11.1304C26.7363 10.9443 26.7692 10.7609 26.7966 10.5817C26.824 10.4135 26.8473 10.248 26.8692 10.0867C26.8815 9.99158 26.8939 9.89783 26.9035 9.80545C26.9144 9.71859 26.9226 9.63173 26.9322 9.54487C26.9432 9.45663 26.95 9.36977 26.9583 9.28153C26.9678 9.19605 26.9733 9.10919 26.9802 9.02508C26.9857 8.96718 26.9911 8.91065 26.9925 8.85274C26.9966 8.80311 27.0007 8.75347 27.0035 8.70384C27.0131 8.56321 27.0199 8.42671 27.0254 8.29297C27.0281 8.23507 27.0309 8.17578 27.0322 8.11925C27.035 8.08203 27.0364 8.04342 27.0364 8.0062C27.0391 7.93726 27.0405 7.8697 27.0418 7.80214C27.0542 7.1955 27.0364 6.6702 27.0117 6.24417L27.0131 6.24003ZM22.6999 15.6706C21.8436 17.3113 20.805 18.6776 19.7254 19.8068V12.5822L16.0836 17.0576H14.2476L10.6045 12.5822V19.8041C9.5262 18.6763 8.48902 17.3099 7.63269 15.6706C6.07897 12.6953 5.64464 9.82475 5.6145 7.64497C7.26824 6.87425 9.44262 6.10905 12.039 5.74506L15.1656 9.75995L18.2909 5.74506C20.89 6.10905 23.063 6.87425 24.7181 7.64497C24.688 9.822 24.2564 12.6912 22.6999 15.6706Z" fill="#FF0000"/>
<path d="M38.0674 24.2127H33.2363L35.6381 5.44531H41.0008L44.3329 17.5603L47.6514 5.44531H53.0277L55.4433 24.2251H50.5985L49.4298 13.1649L46.4429 24.2113H42.275L39.2882 13.1649L38.0674 24.2113V24.2127Z" fill="black"/>
<path d="M68.6217 10.0529H71.9402V24.2111H68.4888L67.9969 22.9289C66.9885 24.0057 65.6965 24.5448 64.1209 24.5448C62.8288 24.5448 61.6409 24.2125 60.5572 23.5493C59.4734 22.8862 58.613 21.9872 57.9759 20.8512C57.3388 19.7165 57.0195 18.4756 57.0195 17.1313C57.0195 15.787 57.3388 14.5627 57.9759 13.4308C58.613 12.3002 59.4762 11.4054 60.564 10.7464C61.6519 10.0873 62.8384 9.75781 64.1209 9.75781C65.7047 9.75781 67.0146 10.3148 68.0504 11.4275L68.6217 10.0515V10.0529ZM66.1322 19.9302C66.6049 19.6585 66.9789 19.2821 67.2543 18.801C67.5284 18.3198 67.6654 17.7766 67.6654 17.1713C67.6654 16.566 67.5297 16.0187 67.2612 15.5278C66.9913 15.0384 66.62 14.6551 66.1459 14.3793C65.6718 14.1036 65.1485 13.9657 64.573 13.9657C63.9976 13.9657 63.4618 14.1036 62.9933 14.3793C62.5247 14.6551 62.1547 15.0384 61.8848 15.5278C61.6149 16.0173 61.4806 16.5647 61.4806 17.1713C61.4806 17.7779 61.6135 18.3198 61.8794 18.801C62.1452 19.2821 62.5096 19.6585 62.9741 19.9302C63.4385 20.2018 63.9633 20.3369 64.547 20.3369C65.1306 20.3369 65.6595 20.2018 66.1336 19.9302H66.1322Z" fill="black"/>
<path d="M84.4452 10.0671C85.011 10.2629 85.5509 10.5524 86.0647 10.9357L84.0876 14.6087C83.4409 14.1454 82.7997 13.9138 82.1626 13.9138C81.694 13.9138 81.2583 14.0406 80.8555 14.2943C80.4526 14.548 80.1279 14.9217 79.8799 15.4166C79.6319 15.9102 79.5086 16.492 79.5086 17.1593V24.2116H75.0215V10.0533H78.4728L79.136 11.7905C79.5347 11.1494 80.0389 10.6531 80.6486 10.3015C81.2596 9.94992 81.9543 9.77344 82.7325 9.77344C83.308 9.77344 83.878 9.87133 84.4452 10.0671Z" fill="black"/>
<path d="M107.296 10.3801C108.071 10.8475 108.672 11.5493 109.102 12.484C109.531 13.4188 109.746 14.5632 109.746 15.9171V24.2116H105.259V16.5306C105.259 15.6676 105.078 15.0085 104.715 14.5535C104.352 14.0999 103.83 13.8724 103.149 13.8724C102.715 13.8724 102.324 13.9786 101.975 14.1937C101.626 14.4074 101.345 14.6969 101.132 15.0623C100.92 15.4277 100.791 15.8192 100.747 16.2384V24.213H96.2601V16.532C96.2601 15.6689 96.0793 15.0099 95.7162 14.5549C95.3531 14.1013 94.8311 13.8738 94.1501 13.8738C93.6898 13.8738 93.2733 13.9965 92.902 14.2406C92.5306 14.486 92.2429 14.81 92.0388 15.2153C91.8346 15.6207 91.7332 16.055 91.7332 16.5182V24.2116H87.2461V10.0533H90.6974L91.2277 11.4431C91.8031 10.8819 92.4663 10.4476 93.2184 10.1402C93.9706 9.83273 94.7544 9.67969 95.5682 9.67969C96.4972 9.67969 97.3206 9.86858 98.0372 10.2477C98.7537 10.6269 99.3374 11.1811 99.7896 11.9105C100.365 11.2156 101.075 10.671 101.92 10.2739C102.765 9.87823 103.648 9.67969 104.569 9.67969C105.613 9.67969 106.522 9.9127 107.296 10.3815V10.3801Z" fill="black"/>
<path d="M123.192 10.0529H126.51V24.2111H123.059L122.567 22.9289C121.559 24.0057 120.267 24.5448 118.691 24.5448C117.399 24.5448 116.211 24.2125 115.127 23.5493C114.044 22.8862 113.183 21.9872 112.546 20.8512C111.909 19.7165 111.59 18.4756 111.59 17.1313C111.59 15.787 111.909 14.5627 112.546 13.4308C113.183 12.3002 114.046 11.4054 115.134 10.7464C116.222 10.0873 117.409 9.75781 118.691 9.75781C120.275 9.75781 121.585 10.3148 122.621 11.4275L123.192 10.0515V10.0529ZM120.703 19.9302C121.175 19.6585 121.549 19.2821 121.825 18.801C122.099 18.3198 122.236 17.7766 122.236 17.1713C122.236 16.566 122.1 16.0187 121.832 15.5278C121.562 15.0384 121.19 14.6551 120.716 14.3793C120.242 14.1036 119.719 13.9657 119.143 13.9657C118.568 13.9657 118.032 14.1036 117.564 14.3793C117.095 14.6551 116.725 15.0384 116.455 15.5278C116.185 16.0173 116.051 16.5647 116.051 17.1713C116.051 17.7779 116.184 18.3198 116.45 18.801C116.715 19.2821 117.08 19.6585 117.544 19.9302C118.009 20.2018 118.534 20.3369 119.117 20.3369C119.701 20.3369 120.23 20.2018 120.704 19.9302H120.703Z" fill="black"/>
<path d="M131.813 23.6208C130.525 23.0734 129.47 22.2875 128.646 21.2631L129.562 20.3546C130.296 21.2452 131.232 21.9291 132.369 22.4047C133.506 22.8818 134.681 23.1189 135.893 23.1189C136.84 23.1189 137.7 22.97 138.474 22.6708C139.248 22.373 139.864 21.9249 140.32 21.3279C140.775 20.731 141.004 20.0099 141.004 19.1647C141.004 18.3195 140.756 17.6701 140.26 17.1683C139.764 16.665 139.148 16.2776 138.414 16.006C137.68 15.7344 136.653 15.4297 135.334 15.0905C134.086 14.7789 133.053 14.4563 132.235 14.1227C131.416 13.789 130.728 13.2995 130.171 12.6529C129.614 12.0077 129.336 11.1597 129.336 10.1078C129.336 9.13713 129.617 8.27955 130.178 7.53641C130.74 6.79327 131.507 6.22109 132.481 5.81988C133.454 5.41867 134.539 5.21875 135.734 5.21875C136.858 5.21875 137.955 5.41315 139.027 5.80058C140.097 6.188 141.027 6.74226 141.813 7.46334L140.978 8.43811C140.305 7.83284 139.512 7.36269 138.595 7.02904C137.68 6.69538 136.743 6.52855 135.788 6.52855C134.833 6.52855 134.032 6.67332 133.258 6.96286C132.484 7.25239 131.866 7.67015 131.406 8.21889C130.946 8.76625 130.715 9.41012 130.715 10.1491C130.715 10.8881 130.943 11.532 131.399 11.9994C131.855 12.4668 132.424 12.828 133.105 13.0817C133.786 13.3354 134.724 13.6139 135.919 13.9158C137.334 14.2991 138.474 14.6659 139.338 15.0175C140.201 15.369 140.926 15.8764 141.515 16.5396C142.102 17.2028 142.397 18.0741 142.397 19.1509C142.397 20.2277 142.102 21.2328 141.515 22.0297C140.926 22.8266 140.136 23.4278 139.146 23.8331C138.155 24.2385 137.058 24.4411 135.853 24.4411C134.446 24.4411 133.099 24.1668 131.811 23.6194L131.813 23.6208Z" fill="#FF0000"/>
<path d="M154.193 11.1411C155.144 11.756 155.874 12.604 156.384 13.6863C156.892 14.7686 157.147 15.9957 157.147 17.3661C157.147 17.5881 157.137 17.7577 157.121 17.8735H145.812C145.883 18.9062 146.168 19.8355 146.668 20.6586C147.168 21.4831 147.825 22.1255 148.64 22.5888C149.454 23.0521 150.348 23.2837 151.321 23.2837C152.179 23.2837 152.974 23.1306 153.704 22.8232C154.434 22.5157 155.078 22.0814 155.636 21.5203L156.366 22.4826C155.703 23.1417 154.941 23.6518 154.083 24.0117C153.224 24.3729 152.283 24.5521 151.255 24.5521C150.007 24.5521 148.869 24.2364 147.837 23.6036C146.807 22.9707 145.994 22.1076 145.401 21.0115C144.808 19.9168 144.512 18.7104 144.512 17.3923C144.512 16.0743 144.784 14.8568 145.328 13.7662C145.872 12.6757 146.63 11.8112 147.599 11.1742C148.567 10.5372 149.654 10.2188 150.857 10.2188C152.131 10.2188 153.244 10.5262 154.196 11.1397L154.193 11.1411ZM148.438 12.1366C147.704 12.5778 147.109 13.1899 146.653 13.9731C146.197 14.7562 145.92 15.6468 145.823 16.6451H155.832C155.743 15.6207 155.489 14.719 155.069 13.94C154.648 13.161 154.082 12.5557 153.37 12.1228C152.657 11.6912 151.832 11.4748 150.894 11.4748C149.955 11.4748 149.173 11.6954 148.438 12.1366Z" fill="#FF0000"/>
<path d="M163.026 23.5934C161.947 22.9565 161.09 22.0906 160.457 20.9959C159.824 19.9012 159.508 18.6989 159.508 17.3891C159.508 16.0793 159.824 14.8646 160.457 13.7685C161.09 12.6738 161.947 11.8052 163.026 11.1641C164.106 10.523 165.287 10.2031 166.571 10.2031C167.561 10.2031 168.485 10.3837 169.338 10.7436C170.192 11.1048 170.947 11.6136 171.602 12.2726L170.872 13.2212C170.296 12.6518 169.651 12.2119 168.934 11.9059C168.218 11.5984 167.448 11.4454 166.624 11.4454C165.58 11.4454 164.613 11.7087 163.724 12.234C162.834 12.7593 162.129 13.4763 161.607 14.3848C161.085 15.2934 160.823 16.2944 160.823 17.3905C160.823 18.4866 161.086 19.4724 161.612 20.3755C162.138 21.2799 162.844 21.9914 163.729 22.5125C164.614 23.0337 165.579 23.2943 166.623 23.2943C167.455 23.2943 168.231 23.1426 168.952 22.8407C169.673 22.5373 170.317 22.1099 170.884 21.5584L171.614 22.4932C170.959 23.1426 170.2 23.6486 169.337 24.0098C168.474 24.3711 167.556 24.5503 166.583 24.5503C165.291 24.5503 164.106 24.2318 163.026 23.5948V23.5934Z" fill="#FF0000"/>
<path d="M184.397 10.5H185.711V24.2185H184.45V21.7078C184.159 22.2413 183.753 22.7225 183.236 23.1499C182.719 23.5773 182.124 23.9138 181.451 24.1592C180.778 24.4046 180.076 24.5259 179.341 24.5259C178.262 24.5259 177.319 24.3012 176.513 23.8517C175.708 23.4022 175.084 22.7432 174.642 21.8746C174.199 21.006 173.979 19.9582 173.979 18.7297V10.5014H175.306V18.556C175.306 20.0602 175.684 21.2183 176.441 22.029C177.197 22.8397 178.244 23.2451 179.58 23.2451C180.429 23.2451 181.224 23.0355 181.962 22.6177C182.701 22.1986 183.291 21.6209 183.734 20.8805C184.176 20.1415 184.397 19.3046 184.397 18.3698V10.5028V10.5Z" fill="#FF0000"/>
<path d="M197.099 10.4614C197.621 10.6213 198.135 10.8626 198.639 11.1825L198.042 12.2648C197.21 11.7395 196.361 11.4762 195.494 11.4762C194.803 11.4762 194.151 11.6885 193.536 12.1104C192.92 12.5337 192.423 13.1251 192.042 13.8862C191.661 14.6473 191.459 15.5145 191.431 16.4837V24.2171H190.117V10.4986H191.378V13.0769C191.749 12.2303 192.311 11.5437 193.063 11.0129C193.815 10.4835 194.656 10.2188 195.585 10.2188C196.072 10.2188 196.576 10.2987 197.098 10.4587L197.099 10.4614Z" fill="#FF0000"/>
<path d="M200.596 6.4509C200.405 6.2634 200.311 6.03728 200.311 5.76981C200.311 5.50233 200.404 5.25967 200.589 5.06803C200.775 4.87638 201.013 4.78125 201.305 4.78125C201.597 4.78125 201.838 4.87776 202.029 5.06803C202.219 5.25967 202.314 5.49268 202.314 5.76981C202.314 6.04693 202.218 6.2634 202.029 6.4509C201.838 6.63841 201.597 6.73079 201.305 6.73079C201.013 6.73079 200.785 6.63703 200.596 6.4509ZM201.982 24.216H200.668V10.4975H201.982V24.216Z" fill="#FF0000"/>
<path d="M208.248 24.2127H206.921V11.7364H204.426V10.4942H206.921V7.02115L208.248 6.78125V10.4942H211.898V11.7364H208.248V24.2127Z" fill="#FF0000"/>
<path d="M217.395 28.9599H215.974L217.965 24.2185L212.311 10.5H213.744L218.642 22.6288L223.54 10.5H225.001L217.395 28.9599Z" fill="#FF0000"/>
</g>
<defs>
<clipPath id="clip0_1814_4017">
<rect width="225" height="30" fill="white"/>
</clipPath>
</defs>
</svg>
