<svg width="30" height="30" viewBox="0 0 30 30" fill="none" xmlns="http://www.w3.org/2000/svg">
<path fill-rule="evenodd" clip-rule="evenodd" d="M6.25 1.25C4.92392 1.25 3.65215 1.77678 2.71447 2.71447C1.77678 3.65215 1.25 4.92392 1.25 6.25V23.75C1.25 25.0761 1.77678 26.3479 2.71447 27.2855C3.65215 28.2232 4.92392 28.75 6.25 28.75H23.75C25.0761 28.75 26.3479 28.2232 27.2855 27.2855C28.2232 26.3479 28.75 25.0761 28.75 23.75V6.25C28.75 4.92392 28.2232 3.65215 27.2855 2.71447C26.3479 1.77678 25.0761 1.25 23.75 1.25H6.25ZM23.095 11.7762C23.2162 16.7537 19.1975 26.8325 5 21.3225C6.8825 21.3225 9.9525 20.6337 10.7137 19.8725C9.60375 19.7137 7.38125 18.92 7.38125 17.015H9.28625L9.1875 16.965C8.18 16.465 5.9525 15.3587 5.9525 12.7287C6.4275 13.205 7.2075 13.4 7.8575 13.205C6.8825 12.3575 4.71625 9.93375 6.42875 7.49125C7.8575 9.07875 11.4763 12.2538 14.5238 12.2538C14.0488 10.9825 14.5238 8.44375 16.905 7.49125C19.2863 6.53875 20.9888 7.3825 21.6675 8.44375C22.4975 8.3775 23.2425 7.94875 23.75 7.6575C23.8617 7.5925 23.9608 7.53708 24.0475 7.49125V7.585C24.05 8.26625 24.0538 9.205 23.0725 9.8725C23.55 10.23 24.0475 10.3725 25 9.8725C25 10.6775 24.2488 11.4625 23.095 11.7762Z" fill="white"/>
</svg>
